# xmcd
#
# Track frame offsets:
#	150
#	21478
#	36823
#	53327
#	70490
#	86086
#	102450
#	123759
#	139069
#	155580
#	172756
#	188398
#
# Disc length: 2731 seconds
#
# Revision: 1
# Processed by: cddbd v1.5.2PL0 Copyright (c) Steve Scherf et al.
# Submitted via: audiograbber 1.83.01
#
DISCID=960aa90c
DTITLE=Chartbuster - CB279
DYEAR=1900
DGENRE=Country
TTITLE0=If You Think You Can -vocal - George Strait
TTITLE1=If You Think You've Got Trouble -vocal - Trick Pony
TTITLE2=When Somebody Loves You -vocal - Alan Jackson
TTITLE3=I Wanna Be That Girl -vocal - Wilkinsons, The
TTITLE4=Big Revival, The -vocal - John Anderson
TTITLE5=Live Close By -vocal - K T Olsin
TTITLE6=If You Think You Can - George Strait
TTITLE7=If You Think You've Got Trouble - Trick Pony
TTITLE8=When Somebody Loves You - Alan Jackson
TTITLE9=I Wanna Be That Girl - Wilkinsons, The
TTITLE10=Big Revival, The - John Anderson
TTITLE11=Live Close By - K T Olsin
EXTD=
EXTT0=
EXTT1=
EXTT2=
EXTT3=
EXTT4=
EXTT5=
EXTT6=
EXTT7=
EXTT8=
EXTT9=
EXTT10=
EXTT11=
PLAYORDER=
